<svg width="455" height="257" viewBox="0 0 455 257" fill="none" xmlns="http://www.w3.org/2000/svg">
<path d="M0 188.951V239.434H10.5632V188.951H0ZM6.42657 197.678H16.6943C19.5013 197.678 21.7174 198.303 23.3425 199.553C24.9676 200.755 25.7801 202.582 25.7801 205.034C25.7801 207.438 24.9676 209.265 23.3425 210.515C21.7174 211.765 19.5013 212.39 16.6943 212.39H6.42657V221.116H16.6943C20.7817 221.116 24.2535 220.467 27.1098 219.169C30.0153 217.871 32.2313 216.02 33.7579 213.616C35.2846 211.164 36.0479 208.303 36.0479 205.034C36.0479 201.716 35.2846 198.856 33.7579 196.452C32.2313 194.048 30.0153 192.197 27.1098 190.898C24.2535 189.6 20.7817 188.951 16.6943 188.951H6.42657V197.678Z" fill="#32B768"/>
<path d="M43.3337 183.182V239.434H52.9367V183.182H43.3337Z" fill="#32B768"/>
<path d="M69.1739 229.121C69.1739 228.16 69.3955 227.367 69.8387 226.742C70.2819 226.068 70.9714 225.564 71.907 225.227C72.8427 224.842 74.0492 224.65 75.5266 224.65C77.3487 224.65 79.0723 224.89 80.6974 225.371C82.3718 225.852 83.8737 226.573 85.2034 227.535V223.208C84.7109 222.631 83.8984 222.03 82.7657 221.405C81.6331 220.78 80.2296 220.251 78.5552 219.818C76.9301 219.385 75.0341 219.169 72.8673 219.169C68.6322 219.169 65.3574 220.107 63.0428 221.982C60.7283 223.857 59.571 226.405 59.571 229.626C59.571 231.886 60.1127 233.809 61.1961 235.396C62.3287 236.934 63.8061 238.112 65.6282 238.93C67.4503 239.747 69.4201 240.156 71.5377 240.156C73.606 240.156 75.5758 239.795 77.4472 239.074C79.3678 238.353 80.919 237.271 82.1009 235.828C83.332 234.386 83.9476 232.607 83.9476 230.492L82.7657 226.165C82.7657 227.751 82.3964 229.121 81.6577 230.275C80.919 231.381 79.9587 232.247 78.7768 232.872C77.5949 233.449 76.2653 233.737 74.7879 233.737C73.7538 233.737 72.7935 233.569 71.907 233.232C71.0699 232.848 70.405 232.319 69.9126 231.646C69.4201 230.924 69.1739 230.083 69.1739 229.121ZM65.4805 215.635C65.9729 215.299 66.7362 214.89 67.7704 214.409C68.8046 213.928 70.0357 213.52 71.4638 213.183C72.8919 212.847 74.3939 212.678 75.9698 212.678C77.004 212.678 77.9396 212.775 78.7768 212.967C79.614 213.159 80.3281 213.472 80.919 213.904C81.5592 214.337 82.027 214.89 82.3225 215.563C82.618 216.188 82.7657 216.957 82.7657 217.871V239.434H91.9993V215.924C91.9993 213.664 91.3591 211.765 90.0787 210.226C88.7983 208.64 87.0255 207.438 84.7602 206.62C82.4949 205.803 79.9095 205.394 77.004 205.394C73.8522 205.394 70.996 205.827 68.4352 206.692C65.8744 207.51 63.7076 208.375 61.9348 209.289L65.4805 215.635Z" fill="#32B768"/>
<path d="M122.838 219.241V239.434H132.737V218.231C132.737 214.241 131.752 211.14 129.782 208.928C127.812 206.668 124.808 205.539 120.77 205.539C118.357 205.539 116.289 206.043 114.565 207.053C112.891 208.015 111.536 209.433 110.502 211.308V206.26H100.899V239.434H110.502V219.241C110.502 217.847 110.773 216.645 111.315 215.635C111.856 214.626 112.644 213.856 113.679 213.327C114.713 212.75 115.895 212.462 117.224 212.462C119.194 212.462 120.622 213.039 121.509 214.193C122.395 215.347 122.838 217.03 122.838 219.241Z" fill="#32B768"/>
<path d="M137.804 206.26V214.121H158.782V206.26H137.804ZM143.639 194.721V239.434H152.873V194.721H143.639Z" fill="#32B768"/>
<path d="M176.138 211.092L191.133 234.747L206.128 211.092L209.452 239.435H220.459L212.776 186.427L191.133 219.025L169.489 186.427L161.807 239.435H172.813L176.138 211.092Z" fill="#52665A"/>
<path d="M234.657 229.122C234.657 228.16 234.879 227.367 235.322 226.742C235.765 226.069 236.454 225.564 237.39 225.227C238.326 224.843 239.532 224.65 241.01 224.65C242.832 224.65 244.555 224.891 246.181 225.371C247.855 225.852 249.357 226.573 250.686 227.535V223.208C250.194 222.631 249.381 222.03 248.249 221.405C247.116 220.78 245.713 220.251 244.038 219.818C242.413 219.386 240.517 219.169 238.35 219.169C234.115 219.169 230.84 220.107 228.526 221.982C226.211 223.857 225.054 226.405 225.054 229.626C225.054 231.886 225.596 233.809 226.679 235.396C227.812 236.934 229.289 238.112 231.111 238.93C232.933 239.747 234.903 240.156 237.021 240.156C239.089 240.156 241.059 239.795 242.93 239.074C244.851 238.353 246.402 237.271 247.584 235.829C248.815 234.386 249.431 232.607 249.431 230.492L248.249 226.165C248.249 227.751 247.879 229.122 247.141 230.275C246.402 231.381 245.442 232.247 244.26 232.872C243.078 233.449 241.748 233.737 240.271 233.737C239.237 233.737 238.277 233.569 237.39 233.232C236.553 232.848 235.888 232.319 235.396 231.646C234.903 230.925 234.657 230.083 234.657 229.122ZM230.964 215.635C231.456 215.299 232.219 214.89 233.254 214.409C234.288 213.929 235.519 213.52 236.947 213.183C238.375 212.847 239.877 212.679 241.453 212.679C242.487 212.679 243.423 212.775 244.26 212.967C245.097 213.159 245.811 213.472 246.402 213.905C247.042 214.337 247.51 214.89 247.806 215.563C248.101 216.188 248.249 216.958 248.249 217.871V239.435H257.482V215.924C257.482 213.664 256.842 211.765 255.562 210.226C254.281 208.64 252.509 207.438 250.243 206.621C247.978 205.803 245.393 205.395 242.487 205.395C239.335 205.395 236.479 205.827 233.918 206.693C231.358 207.51 229.191 208.375 227.418 209.289L230.964 215.635Z" fill="#52665A"/>
<path d="M288.321 219.241V239.435H298.22V218.232C298.22 214.241 297.235 211.14 295.265 208.928C293.295 206.669 290.291 205.539 286.253 205.539C283.84 205.539 281.772 206.044 280.048 207.053C278.374 208.015 277.019 209.433 275.985 211.308V206.26H266.382V239.435H275.985V219.241C275.985 217.847 276.256 216.645 276.798 215.635C277.34 214.626 278.128 213.856 279.162 213.328C280.196 212.751 281.378 212.462 282.707 212.462C284.677 212.462 286.105 213.039 286.992 214.193C287.878 215.347 288.321 217.03 288.321 219.241Z" fill="#52665A"/>
<path d="M314.441 229.122C314.441 228.16 314.662 227.367 315.106 226.742C315.549 226.069 316.238 225.564 317.174 225.227C318.11 224.843 319.316 224.65 320.794 224.65C322.616 224.65 324.339 224.891 325.964 225.371C327.639 225.852 329.141 226.573 330.47 227.535V223.208C329.978 222.631 329.165 222.03 328.033 221.405C326.9 220.78 325.496 220.251 323.822 219.818C322.197 219.386 320.301 219.169 318.134 219.169C313.899 219.169 310.624 220.107 308.31 221.982C305.995 223.857 304.838 226.405 304.838 229.626C304.838 231.886 305.38 233.809 306.463 235.396C307.596 236.934 309.073 238.112 310.895 238.93C312.717 239.747 314.687 240.156 316.805 240.156C318.873 240.156 320.843 239.795 322.714 239.074C324.635 238.353 326.186 237.271 327.368 235.829C328.599 234.386 329.215 232.607 329.215 230.492L328.033 226.165C328.033 227.751 327.663 229.122 326.925 230.275C326.186 231.381 325.226 232.247 324.044 232.872C322.862 233.449 321.532 233.737 320.055 233.737C319.021 233.737 318.06 233.569 317.174 233.232C316.337 232.848 315.672 232.319 315.18 231.646C314.687 230.925 314.441 230.083 314.441 229.122ZM310.747 215.635C311.24 215.299 312.003 214.89 313.037 214.409C314.072 213.929 315.303 213.52 316.731 213.183C318.159 212.847 319.661 212.679 321.237 212.679C322.271 212.679 323.207 212.775 324.044 212.967C324.881 213.159 325.595 213.472 326.186 213.905C326.826 214.337 327.294 214.89 327.589 215.563C327.885 216.188 328.033 216.958 328.033 217.871V239.435H337.266V215.924C337.266 213.664 336.626 211.765 335.346 210.226C334.065 208.64 332.292 207.438 330.027 206.621C327.762 205.803 325.176 205.395 322.271 205.395C319.119 205.395 316.263 205.827 313.702 206.693C311.141 207.51 308.975 208.375 307.202 209.289L310.747 215.635Z" fill="#52665A"/>
<path d="M344.541 241.742C344.738 244.627 345.526 247.175 346.905 249.387C348.333 251.647 350.377 253.378 353.036 254.58C355.695 255.83 358.995 256.455 362.934 256.455C366.185 256.455 369.189 255.83 371.946 254.58C374.704 253.378 376.896 251.454 378.521 248.81C380.195 246.166 381.032 242.8 381.032 238.713V206.26H371.799V238.713C371.799 240.973 371.355 242.848 370.469 244.339C369.632 245.829 368.499 246.935 367.071 247.656C365.692 248.377 364.215 248.738 362.639 248.738C360.915 248.738 359.413 248.449 358.133 247.872C356.853 247.296 355.843 246.478 355.104 245.42C354.366 244.411 353.972 243.185 353.922 241.742H344.541ZM343.876 222.559C343.876 226.213 344.64 229.314 346.166 231.862C347.693 234.362 349.712 236.261 352.223 237.559C354.735 238.858 357.394 239.507 360.201 239.507C363.058 239.507 365.569 238.858 367.736 237.559C369.952 236.213 371.676 234.266 372.907 231.718C374.187 229.17 374.827 226.117 374.827 222.559C374.827 218.953 374.187 215.9 372.907 213.4C371.676 210.852 369.952 208.904 367.736 207.558C365.569 206.212 363.058 205.539 360.201 205.539C357.394 205.539 354.735 206.188 352.223 207.486C349.712 208.784 347.693 210.707 346.166 213.255C344.64 215.756 343.876 218.857 343.876 222.559ZM353.775 222.559C353.775 220.539 354.193 218.857 355.03 217.51C355.868 216.116 357 215.058 358.428 214.337C359.857 213.616 361.383 213.255 363.008 213.255C364.092 213.255 365.15 213.472 366.185 213.905C367.219 214.289 368.154 214.866 368.992 215.635C369.878 216.405 370.567 217.366 371.06 218.52C371.552 219.674 371.799 221.02 371.799 222.559C371.799 224.578 371.355 226.285 370.469 227.679C369.632 229.025 368.524 230.059 367.145 230.78C365.815 231.453 364.436 231.79 363.008 231.79C361.383 231.79 359.857 231.429 358.428 230.708C357 229.987 355.868 228.953 355.03 227.607C354.193 226.213 353.775 224.53 353.775 222.559Z" fill="#52665A"/>
<path d="M406.344 240.156C410.431 240.156 413.928 239.387 416.833 237.848C419.788 236.261 422.152 233.905 423.924 230.78L415.577 228.256C414.592 229.843 413.337 231.045 411.81 231.862C410.333 232.631 408.535 233.016 406.418 233.016C404.546 233.016 402.946 232.607 401.616 231.79C400.287 230.973 399.277 229.795 398.588 228.256C397.947 226.718 397.627 224.843 397.627 222.631C397.676 220.323 398.021 218.4 398.661 216.861C399.351 215.275 400.311 214.097 401.542 213.328C402.823 212.51 404.399 212.102 406.27 212.102C407.797 212.102 409.126 212.438 410.259 213.111C411.391 213.784 412.253 214.698 412.844 215.852C413.484 217.006 413.805 218.4 413.805 220.035C413.805 220.371 413.706 220.804 413.509 221.333C413.361 221.814 413.189 222.198 412.992 222.487L415.577 219.169H393.491V224.939H423.924C423.974 224.65 423.998 224.266 423.998 223.785C424.048 223.304 424.072 222.847 424.072 222.415C424.072 218.857 423.383 215.828 422.004 213.328C420.625 210.779 418.606 208.856 415.947 207.558C413.337 206.212 410.16 205.539 406.418 205.539C402.675 205.539 399.425 206.26 396.667 207.702C393.909 209.097 391.767 211.092 390.24 213.688C388.763 216.236 388.024 219.289 388.024 222.847C388.024 226.357 388.763 229.41 390.24 232.006C391.767 234.555 393.909 236.55 396.667 237.992C399.425 239.435 402.65 240.156 406.344 240.156Z" fill="#52665A"/>
<path d="M440.67 206.26H431.288V239.435H440.67V206.26ZM450.642 215.996L455 208.063C454.311 207.197 453.4 206.548 452.267 206.116C451.184 205.683 450.026 205.467 448.795 205.467C447.022 205.467 445.299 206.092 443.624 207.342C441.95 208.544 440.596 210.178 439.562 212.246C438.527 214.265 438.01 216.597 438.01 219.241L440.67 221.838C440.67 220.251 440.867 218.905 441.261 217.799C441.704 216.645 442.344 215.756 443.181 215.131C444.018 214.506 445.028 214.193 446.21 214.193C447.195 214.193 448.007 214.361 448.647 214.698C449.337 214.986 450.002 215.419 450.642 215.996Z" fill="#52665A"/>
<g clip-path="url(#clip0)">
<path d="M279.71 0.217438C254.646 0.217438 234.255 20.5354 234.255 45.5091V50.1691H238.932C263.996 50.1691 284.387 29.8511 284.387 4.87741V0.217438H279.71Z" fill="#00C063"/>
<path d="M197.418 15.0143H192.742V19.6743C192.742 44.6486 213.133 64.9663 238.196 64.9663H242.873V60.3063C242.873 35.3326 222.482 15.0143 197.418 15.0143Z" fill="#00C063"/>
<path d="M276.695 96.4117C269.306 88.2009 256.939 74.4585 241.435 73.1748C217.636 71.2045 202.041 84.8841 201.388 85.4672L204.266 88.6631H204.266L207.143 91.8588C207.17 91.835 207.735 91.339 208.786 90.5771L225.2 97.5285L240.695 104.523L243.324 117.177L272.842 104.953C273.299 105.438 273.728 105.878 274.126 106.262L280.123 100.097C279.27 99.2739 278.077 97.9473 276.695 96.4117Z" fill="#2B7A4B"/>
<path d="M297.622 105.648C296.139 102.093 293.356 99.3266 289.785 97.8577C286.214 96.3888 282.283 96.3934 278.715 97.8709L247.001 111.004C247.031 109.088 246.677 107.164 245.934 105.324C244.426 101.589 241.531 98.7086 237.781 97.2131L208.546 85.5527C202.073 82.969 194.959 83.0154 188.513 85.6835L174.003 91.6928L175.656 95.6575L175.68 97.2103L175.656 97.226L175.902 121.308L174.288 125.289L221.717 144.378C224.957 145.679 228.355 146.329 231.751 146.329C235.245 146.329 238.737 145.642 242.054 144.268L289.817 124.488C293.384 123.011 296.161 120.237 297.635 116.679C299.109 113.12 299.105 109.203 297.622 105.648Z" fill="#F9D5A5"/>
<path d="M175.777 108.995L175.902 108.684L175.769 95.6108L175.656 95.6575L175.68 97.2105L175.656 97.226L175.777 108.995Z" fill="#F9BE77"/>
<path d="M179.965 80.1391H151.667V137.751H179.965V80.1391Z" fill="#32B768"/>
<path d="M180.253 74.0887H171.636V140.965H180.253V74.0887Z" fill="white"/>
<path d="M267.169 22.2743L260.941 16.3409L234.256 44.2218V49.9702L216.188 31.1389L209.959 37.0725L234.256 62.3957V77.2692H242.873V47.5972L267.169 22.2743Z" fill="#73E6A1"/>
</g>
<defs>
<clipPath id="clip0">
<rect width="147.071" height="146.545" fill="white" transform="translate(151.667)"/>
</clipPath>
</defs>
</svg>
